<?xml version="1.0" encoding="UTF-8"?>
<!-- Figura della home: le tre parti del corso attorno allo stesso processo.
     Questo e' il file per il tema chiaro. Per rigenerare quello scuro:
       sed -e 's/#1f2a36/#dfe5ea/g' -e 's/#3a7d44/#6fbb7d/g' -e 's/#2f6690/#6aa9dc/g' \
           -e 's/#a86a12/#dfa53f/g' -e 's/#8a1c2f/#e0697f/g' -e 's/#ffffff/#12171c/g' \
           img/hero-light.svg > img/hero-dark.svg
-->
<svg xmlns="http://www.w3.org/2000/svg" viewBox="0 0 960 360" width="960" height="360"
     font-family="'Source Sans 3','Segoe UI',Roboto,Helvetica,Arial,sans-serif">
  <defs>
    <marker id="aInk" viewBox="0 0 10 10" refX="9" refY="5" markerWidth="6" markerHeight="6" orient="auto-start-reverse">
      <path d="M 0 0 L 10 5 L 0 10 z" fill="#1f2a36" fill-opacity=".45"/>
    </marker>
    <marker id="aId" viewBox="0 0 10 10" refX="9" refY="5" markerWidth="6" markerHeight="6" orient="auto-start-reverse">
      <path d="M 0 0 L 10 5 L 0 10 z" fill="#3a7d44"/>
    </marker>
    <marker id="aMpc" viewBox="0 0 10 10" refX="9" refY="5" markerWidth="6" markerHeight="6" orient="auto-start-reverse">
      <path d="M 0 0 L 10 5 L 0 10 z" fill="#2f6690"/>
    </marker>
    <marker id="aRl" viewBox="0 0 10 10" refX="9" refY="5" markerWidth="6" markerHeight="6" orient="auto-start-reverse">
      <path d="M 0 0 L 10 5 L 0 10 z" fill="#a86a12"/>
    </marker>
  </defs>

  <!-- ===================== identification ===================== -->
  <rect x="8" y="8" width="270" height="196" rx="10" fill="none" stroke="#1f2a36" stroke-opacity=".16"/>
  <text x="28" y="40" font-size="17" font-weight="700" fill="#3a7d44">Identification</text>
  <text x="28" y="61" font-size="13" fill="#1f2a36" fill-opacity=".72">from measured data, a model</text>
  <path d="M 44 180 L 44 88 M 44 180 L 252 180" fill="none" stroke="#1f2a36" stroke-opacity=".35"/>
  <g fill="#3a7d44" fill-opacity=".6">
    <circle cx="65" cy="164" r="3.6"/><circle cx="86" cy="152" r="3.6"/><circle cx="105" cy="140" r="3.6"/>
    <circle cx="124" cy="144" r="3.6"/><circle cx="143" cy="126" r="3.6"/><circle cx="162" cy="116" r="3.6"/>
    <circle cx="181" cy="122" r="3.6"/><circle cx="200" cy="106" r="3.6"/><circle cx="220" cy="100" r="3.6"/>
    <circle cx="237" cy="104" r="3.6"/>
  </g>
  <path d="M 56 170 C 103 152, 138 130, 181 116 S 220 104, 241 98" fill="none" stroke="#3a7d44" stroke-width="2.4" stroke-linecap="round"/>

  <!-- ===================== model predictive control ===================== -->
  <rect x="332" y="8" width="296" height="196" rx="10" fill="none" stroke="#1f2a36" stroke-opacity=".16"/>
  <text x="352" y="40" font-size="17" font-weight="700" fill="#2f6690">Model Predictive Control</text>
  <text x="352" y="61" font-size="13" fill="#1f2a36" fill-opacity=".72">from a model, an optimal plan</text>
  <rect x="492" y="86" width="108" height="96" fill="#2f6690" fill-opacity=".1"/>
  <path d="M 366 96 L 604 96 M 366 176 L 604 176" fill="none" stroke="#8a1c2f" stroke-opacity=".5" stroke-dasharray="6 4"/>
  <path d="M 366 136 L 604 136" fill="none" stroke="#1f2a36" stroke-opacity=".4" stroke-dasharray="2 4"/>
  <path d="M 366 162 C 396 154, 420 120, 446 130 S 478 150, 492 144" fill="none" stroke="#2f6690" stroke-width="2.4" stroke-linecap="round"/>
  <path d="M 492 144 C 516 136, 536 122, 558 128 S 588 138, 602 136" fill="none" stroke="#2f6690" stroke-width="2.4" stroke-linecap="round" stroke-dasharray="6 4"/>
  <path d="M 492 82 L 492 186" stroke="#1f2a36" stroke-opacity=".55" stroke-width="1.2"/>
  <circle cx="492" cy="144" r="4.2" fill="#2f6690"/>
  <text x="498" y="79" font-size="11.5" fill="#2f6690">prediction window</text>
  <text x="370" y="192" font-size="11.5" fill="#8a1c2f" fill-opacity=".8">constraints</text>

  <!-- ===================== reinforcement learning ===================== -->
  <rect x="656" y="8" width="296" height="196" rx="10" fill="none" stroke="#1f2a36" stroke-opacity=".16"/>
  <text x="676" y="40" font-size="17" font-weight="700" fill="#a86a12">Reinforcement Learning</text>
  <text x="676" y="61" font-size="13" fill="#1f2a36" fill-opacity=".72">from experience, a policy</text>
  <rect x="684" y="98" width="96" height="44" rx="6" fill="none" stroke="#a86a12" stroke-width="1.6"/>
  <text x="732" y="126" font-size="13" font-weight="600" text-anchor="middle" fill="#a86a12">agent</text>
  <rect x="832" y="98" width="96" height="44" rx="6" fill="none" stroke="#a86a12" stroke-width="1.6"/>
  <text x="880" y="126" font-size="13" font-weight="600" text-anchor="middle" fill="#a86a12">world</text>
  <path d="M 780 112 L 826 112" fill="none" stroke="#a86a12" stroke-width="1.6" marker-end="url(#aRl)"/>
  <path d="M 832 130 L 786 130" fill="none" stroke="#a86a12" stroke-width="1.6" marker-end="url(#aRl)"/>
  <text x="803" y="105" font-size="11" text-anchor="middle" fill="#1f2a36" fill-opacity=".72">action</text>
  <text x="807" y="146" font-size="11" text-anchor="middle" fill="#1f2a36" fill-opacity=".72">reward, state</text>
  <path d="M 732 142 L 732 172 L 880 172 L 880 142" fill="none" stroke="#a86a12" stroke-opacity=".55" stroke-width="1.4" stroke-dasharray="5 4"/>
  <text x="806" y="190" font-size="11.5" text-anchor="middle" fill="#a86a12">value function, policy</text>

  <!-- ===================== the loop they all close ===================== -->
  <!-- identification hands the model to the controller, it does not drive the plant -->
  <path d="M 282 120 L 326 120" fill="none" stroke="#3a7d44" stroke-opacity=".85" stroke-width="1.6" marker-end="url(#aId)"/>
  <text x="304" y="110" font-size="10.5" text-anchor="middle" fill="#3a7d44">model</text>

  <!-- RL can also hand MPC the value function to use as terminal cost -->
  <path d="M 700 204 L 700 226 L 566 226 L 566 208" fill="none" stroke="#a86a12" stroke-opacity=".6"
        stroke-width="1.4" stroke-dasharray="5 4" marker-end="url(#aRl)"/>
  <text x="633" y="220" font-size="10.5" text-anchor="middle" fill="#a86a12">value function</text>

  <!-- the two controllers are alternatives: they feed the same single input -->
  <path d="M 480 204 L 480 250" fill="none" stroke="#2f6690" stroke-opacity=".75" stroke-width="1.6"/>
  <path d="M 804 204 L 804 250 L 486 250" fill="none" stroke="#a86a12" stroke-opacity=".75" stroke-width="1.6"/>
  <circle cx="480" cy="250" r="3.6" fill="#1f2a36" fill-opacity=".6"/>
  <path d="M 480 250 L 480 258" fill="none" stroke="#1f2a36" stroke-opacity=".6" stroke-width="1.8" marker-end="url(#aInk)"/>
  <text x="466" y="254" font-size="11.5" text-anchor="end" fill="#1f2a36" fill-opacity=".72">control</text>
  <text x="500" y="243" font-size="10.5" fill="#1f2a36" fill-opacity=".6">one of the two, or both</text>

  <rect x="392" y="264" width="176" height="52" rx="26" fill="#1f2a36"/>
  <text x="480" y="296" font-size="15" font-weight="700" letter-spacing="1" text-anchor="middle" fill="#ffffff">process</text>

  <!-- the measurements come back to all three: data to identify with, state to
       decide on, state and reward to learn from -->
  <g fill="none" stroke="#1f2a36" stroke-opacity=".45" stroke-width="1.4" stroke-dasharray="5 4">
    <path d="M 480 316 L 480 340"/>
    <path d="M 884 340 L 60 340"/>
    <path d="M 60 340 L 60 212" marker-end="url(#aInk)"/>
    <path d="M 360 340 L 360 212" marker-end="url(#aInk)"/>
    <path d="M 884 340 L 884 212" marker-end="url(#aInk)"/>
  </g>
  <text x="222" y="334" font-size="11.5" text-anchor="middle" fill="#1f2a36" fill-opacity=".72">measurements</text>
</svg>
